<svg width="40" height="39" viewBox="0 0 40 39" fill="none" xmlns="http://www.w3.org/2000/svg">
<g clip-path="url(#clip0_12_47)">
<path fill-rule="evenodd" clip-rule="evenodd" d="M20.222 6.6438C13.0489 6.6438 7.25012 12.4801 7.25012 19.7005C7.25012 25.4721 10.9656 30.3577 16.1199 32.0868C16.7644 32.2168 17.0004 31.8059 17.0004 31.4602C17.0004 31.1575 16.9792 30.12 16.9792 29.0389C13.3707 29.8173 12.6193 27.4825 12.6193 27.4825C12.0394 25.9693 11.1801 25.5803 11.1801 25.5803C9.99909 24.7805 11.2662 24.7805 11.2662 24.7805C12.5763 24.867 13.2637 26.1207 13.2637 26.1207C14.4232 28.1093 16.2917 27.5475 17.0434 27.2015C17.1507 26.3584 17.4946 25.7748 17.8597 25.4506C14.9816 25.1479 11.9536 24.0239 11.9536 19.0086C11.9536 17.5819 12.4687 16.4146 13.2849 15.5068C13.1562 15.1826 12.705 13.8421 13.414 12.048C13.414 12.048 14.5093 11.7021 16.9789 13.3882C18.0362 13.1024 19.1267 12.957 20.222 12.9558C21.3173 12.9558 22.4338 13.1073 23.4649 13.3882C25.9348 11.7021 27.03 12.048 27.03 12.048C27.739 13.8421 27.2876 15.1826 27.1588 15.5068C27.9965 16.4146 28.4904 17.5819 28.4904 19.0086C28.4904 24.0239 25.4624 25.1262 22.5629 25.4506C23.0355 25.8613 23.4433 26.6394 23.4433 27.8716C23.4433 29.6225 23.4221 31.0278 23.4221 31.4599C23.4221 31.8059 23.6584 32.2168 24.3026 32.0871C29.4569 30.3574 33.1724 25.4721 33.1724 19.7005C33.1936 12.4801 27.3736 6.6438 20.222 6.6438Z" fill="#24292F"/>
</g>
<rect x="1.10632" y="0.5" width="37.7552" height="37.7552" stroke="#03301F"/>
<defs>
<clipPath id="clip0_12_47">
<rect width="26.0213" height="25.4677" fill="white" transform="translate(7.25012 6.6438)"/>
</clipPath>
</defs>
</svg>
