<svg width="39" height="39" viewBox="0 0 39 39" fill="none" xmlns="http://www.w3.org/2000/svg">
<rect x="0.702148" y="0.5" width="37.7552" height="37.7552" stroke="#03301F"/>
<g clip-path="url(#clip0_74_6)">
<path d="M15.6666 19.5072C15.6628 17.3904 17.3761 15.6708 19.4924 15.6672C21.6092 15.663 23.3291 17.3755 23.3332 19.4927C23.3373 21.6098 21.6241 23.329 19.5069 23.3331C17.3906 23.3372 15.6707 21.6243 15.6666 19.5072ZM13.5953 19.5113C13.6017 22.7727 16.2505 25.4107 19.5111 25.4044C22.772 25.3981 25.4116 22.75 25.4052 19.4886C25.3989 16.2283 22.7497 13.5887 19.4884 13.5951C16.2277 13.6014 13.589 16.2506 13.5953 19.5113ZM24.2465 13.3529C24.248 14.1145 24.8672 14.7312 25.6288 14.7297C26.3907 14.7281 27.0074 14.1093 27.0063 13.3477C27.0048 12.586 26.3856 11.969 25.6236 11.9705C24.8616 11.972 24.245 12.5913 24.2465 13.3529ZM14.8715 28.8689C13.7503 28.8201 13.1415 28.6338 12.7357 28.4777C12.1984 28.2698 11.815 28.0205 11.4115 27.62C11.0087 27.2179 10.7587 26.8356 10.5489 26.2994C10.3913 25.8936 10.2017 25.2856 10.1491 24.1644C10.0921 22.9523 10.0791 22.5886 10.0735 19.518C10.0675 16.4481 10.0787 16.0844 10.1316 14.8712C10.1796 13.7508 10.3671 13.1412 10.5228 12.7358C10.7307 12.1978 10.9793 11.8151 11.3806 11.4116C11.7826 11.0081 12.1649 10.7588 12.7014 10.549C13.1068 10.3906 13.7149 10.2025 14.8357 10.1492C16.0485 10.0918 16.4118 10.0795 19.4817 10.0736C22.5522 10.0676 22.9158 10.0784 24.1291 10.1317C25.2494 10.1805 25.859 10.3661 26.2641 10.5229C26.8017 10.7308 27.1851 10.9787 27.5883 11.3807C27.9914 11.7827 28.2415 12.1642 28.4513 12.7019C28.6096 13.1062 28.7978 13.715 28.8507 14.8355C28.9084 16.0483 28.9215 16.412 28.9271 19.4818C28.933 22.5525 28.9218 22.9161 28.8686 24.1286C28.8197 25.2498 28.6338 25.859 28.4774 26.2651C28.2694 26.8021 28.0209 27.1855 27.6192 27.589C27.2176 27.991 26.8353 28.2418 26.2984 28.4516C25.8937 28.6095 25.2849 28.7981 24.1649 28.8514C22.9521 28.9084 22.5887 28.9214 19.5178 28.927C16.4479 28.933 16.0847 28.9214 14.8715 28.8689ZM14.7373 8.07976C13.5137 8.13753 12.678 8.33348 11.9476 8.61967C11.1916 8.91441 10.5508 9.30936 9.9133 9.9495C9.275 10.59 8.88302 11.232 8.59053 11.9887C8.30739 12.7209 8.11548 13.557 8.06144 14.7814C8.0078 16.0081 7.99549 16.3993 8.00147 19.5221C8.00744 22.6445 8.02119 23.0365 8.07968 24.2635C8.13817 25.4868 8.33344 26.3221 8.61959 27.0528C8.91469 27.8088 9.30928 28.4494 9.94977 29.0872C10.5899 29.7251 11.2323 30.1168 11.9894 30.4097C12.7208 30.6924 13.5573 30.8851 14.7813 30.9387C16.0079 30.9927 16.3995 31.0046 19.5215 30.9987C22.645 30.9927 23.0366 30.979 24.2632 30.9208C25.4869 30.8623 26.3218 30.6664 27.0529 30.3809C27.8089 30.0851 28.4497 29.6912 29.0873 29.0507C29.7248 28.4105 30.1168 27.7682 30.4093 27.0111C30.6924 26.2797 30.8851 25.4431 30.9383 24.2199C30.992 22.9925 31.0047 22.6005 30.9987 19.4781C30.9927 16.3553 30.9786 15.9641 30.9205 14.7379C30.8623 13.5135 30.6664 12.6785 30.3806 11.9474C30.0851 11.1914 29.6909 10.5512 29.0508 9.91297C28.4106 9.27544 27.7683 8.88269 27.0111 8.59097C26.2794 8.30778 25.4432 8.1148 24.2193 8.06188C22.9926 8.00748 22.601 7.99557 19.4779 8.0015C16.3555 8.00748 15.9639 8.02086 14.7373 8.07976Z" fill="#162A31"/>
</g>
<defs>
<clipPath id="clip0_74_6">
<rect width="23" height="23" fill="white" transform="translate(8 8)"/>
</clipPath>
</defs>
</svg>
