<svg width="40" height="39" viewBox="0 0 40 39" fill="none" xmlns="http://www.w3.org/2000/svg">
<rect x="0.904297" y="0.5" width="37.7552" height="37.7552" stroke="#03301F"/>
<path d="M20.0001 7.04004C13.4009 7.04004 8.0401 12.4009 8.0401 19C8.0401 25.5992 13.4009 30.96 20.0001 30.96C26.5993 30.96 31.9601 25.5992 31.9601 19C31.9601 12.4009 26.5993 7.04004 20.0001 7.04004ZM20.0001 8.08004C26.0372 8.08004 30.9201 12.9629 30.9201 19C30.9201 25.0371 26.0372 29.92 20.0001 29.92C13.963 29.92 9.0801 25.0371 9.0801 19C9.0801 12.9629 13.963 8.08004 20.0001 8.08004ZM24.7258 13.2983C24.3701 13.2983 23.9705 13.3807 23.503 13.5492C22.7771 13.8107 14.2389 17.436 13.2675 17.8483C12.7122 18.0844 11.6781 18.5235 11.6781 19.5708C11.6781 20.265 12.0848 20.7615 12.8856 21.0475C13.3162 21.2009 14.3388 21.5109 14.9321 21.6742C15.1838 21.7433 15.4513 21.7788 15.7263 21.7788C16.2645 21.7788 16.8062 21.6447 17.2305 21.4081C17.2269 21.4954 17.2292 21.5837 17.2396 21.6721C17.3036 22.2181 17.6403 22.7317 18.1395 23.0463C18.466 23.2522 21.1333 25.0394 21.5317 25.3233C22.0912 25.7232 22.7097 25.9347 23.3192 25.9347C24.484 25.9347 24.8748 24.7321 25.063 24.1543C25.336 23.3156 26.3583 16.4948 26.4737 15.292C26.5522 14.4678 26.2087 13.7891 25.5546 13.4761C25.3096 13.358 25.03 13.2983 24.7258 13.2983ZM24.7258 14.3383C24.8688 14.3383 24.9965 14.362 25.1046 14.4145C25.3506 14.5325 25.4757 14.7957 25.4378 15.1935C25.3119 16.5054 24.2921 23.1647 24.0748 23.8324C23.8886 24.4033 23.6925 24.8947 23.3192 24.8947C22.9458 24.8947 22.5379 24.7638 22.136 24.4763C21.734 24.1892 19.0648 22.3992 18.694 22.1657C18.369 21.9609 18.025 21.4501 18.5092 20.9561C18.908 20.5495 21.9334 17.6132 22.1918 17.3547C22.3842 17.1618 22.2943 16.9292 22.1055 16.9292C22.0405 16.9292 21.9627 16.9566 21.8821 17.0226C21.5659 17.2811 17.1582 20.2305 16.7765 20.4676C16.5238 20.6247 16.1325 20.7378 15.7263 20.7378C15.5532 20.7378 15.3779 20.717 15.2094 20.6707C14.6228 20.509 13.6302 20.2079 13.236 20.0675C12.857 19.9323 12.7191 19.8027 12.7191 19.5708C12.7191 19.2411 13.1844 19.0136 13.6748 18.805C14.1927 18.5851 23.1545 14.7794 23.8554 14.5272C24.1799 14.4097 24.4767 14.3383 24.7258 14.3383Z" fill="#162A31"/>
</svg>
