<svg width="421" height="358" viewBox="0 0 421 358" fill="none" xmlns="http://www.w3.org/2000/svg">
<path d="M13 240C10.8667 240 9.06667 239.267 7.6 237.8C6.26667 236.2 5.73333 234.333 6 232.2L14.6 165C14.8667 162.333 15.8667 160.333 17.6 159C19.4667 157.667 21.4667 157 23.6 157C25.7333 157 27.6667 157.533 29.4 158.6C31.2667 159.533 32.5333 161 33.2 163L49 207.8C49.6667 209.4 50.3333 210.2 51 210.2C51.8 210.2 52.4667 209.4 53 207.8L68.8 163C69.4667 161 70.6667 159.533 72.4 158.6C74.2667 157.533 76.2 157 78.2 157C80.3333 157 82.3333 157.667 84.2 159C86.0667 160.333 87.1333 162.333 87.4 165L96 232.2C96.2667 234.333 95.7333 236.2 94.4 237.8C93.0667 239.267 91.2667 240 89 240C87.2667 240 85.6667 239.4 84.2 238.2C82.8667 237 82.0667 235.467 81.8 233.6L77.4 184.2C77.2667 182.6 76.7333 181.8 75.8 181.8C74.8667 181.8 74.2 182.467 73.8 183.8L59.4 223.6C58.6 225.733 57.4667 227.267 56 228.2C54.5333 229.133 52.8667 229.6 51 229.6C47.4 229.6 44.6667 227.6 42.8 223.6L28.2 183.8C27.6667 182.467 27 181.8 26.2 181.8C25.6667 181.8 25.2667 182.6 25 184.2L20.2 233.6C20.0667 235.467 19.2667 237 17.8 238.2C16.4667 239.4 14.8667 240 13 240ZM148.753 240C141.02 240 133.953 238.2 127.553 234.6C121.286 230.867 116.286 225.867 112.553 219.6C108.82 213.2 106.953 206 106.953 198C106.953 189.6 108.82 182.267 112.553 176C116.286 169.733 121.286 164.867 127.553 161.4C133.953 157.8 141.02 156 148.753 156C156.486 156 163.42 157.8 169.553 161.4C175.82 164.867 180.753 169.733 184.353 176C188.086 182.267 189.953 189.6 189.953 198C189.953 206 188.086 213.2 184.353 219.6C180.753 225.867 175.82 230.867 169.553 234.6C163.42 238.2 156.486 240 148.753 240ZM148.753 227.8C154.086 227.8 158.753 226.467 162.753 223.8C166.886 221 170.086 217.333 172.353 212.8C174.62 208.267 175.753 203.333 175.753 198C175.753 189.467 173.22 182.4 168.153 176.8C163.086 171.2 156.62 168.4 148.753 168.4C140.753 168.4 134.22 171.2 129.153 176.8C124.086 182.4 121.553 189.467 121.553 198C121.553 203.333 122.686 208.267 124.953 212.8C127.22 217.333 130.42 221 134.553 223.8C138.686 226.467 143.42 227.8 148.753 227.8ZM214.922 238C212.122 238 209.589 237.067 207.322 235.2C205.055 233.2 203.922 230.467 203.922 227V168.4C203.922 165.333 204.922 162.867 206.922 161C209.055 159 211.522 158 214.322 158H233.122C239.389 158 244.922 159.733 249.722 163.2C254.522 166.533 256.922 171.333 256.922 177.6C256.922 180.933 256.189 184.067 254.722 187C253.389 189.8 251.589 191.933 249.322 193.4C253.189 194.733 256.255 197.2 258.522 200.8C260.789 204.267 261.922 208.4 261.922 213.2C261.922 221.2 259.522 227.333 254.722 231.6C249.922 235.867 243.922 238 236.722 238H214.922ZM222.722 225.8H236.722C240.989 225.8 244.055 224.533 245.922 222C247.922 219.333 248.922 216.467 248.922 213.4C248.922 210.6 247.989 207.933 246.122 205.4C244.255 202.867 241.389 201.6 237.522 201.6H221.922C218.989 201.6 217.522 203.133 217.522 206.2V220.6C217.522 224.067 219.255 225.8 222.722 225.8ZM221.922 190.4H233.522C236.855 190.4 239.389 189.267 241.122 187C242.855 184.733 243.722 182.333 243.722 179.8C243.722 177.4 242.855 175.2 241.122 173.2C239.522 171.067 236.989 170 233.522 170H222.922C219.322 170 217.522 171.733 217.522 175.2V185.8C217.522 188.867 218.989 190.4 221.922 190.4ZM282.992 240C281.259 240 279.659 239.4 278.192 238.2C276.726 237.133 275.992 235.533 275.992 233.4V163.6C275.992 161.333 276.726 159.667 278.192 158.6C279.659 157.533 281.259 157 282.992 157C284.859 157 286.459 157.533 287.792 158.6C289.259 159.667 289.992 161.333 289.992 163.6V184.4C289.992 187.6 290.592 189.2 291.792 189.2C292.859 189.2 294.059 188.4 295.392 186.8L321.792 159.6C323.526 157.867 325.259 157 326.992 157C328.992 157 330.726 157.667 332.192 159C333.659 160.333 334.392 162 334.392 164C334.392 165.6 333.792 167 332.592 168.2L304.992 195.4L334.192 228.2C335.392 229.667 335.992 231.067 335.992 232.4C335.992 234.4 335.192 236.2 333.592 237.8C332.126 239.267 330.459 240 328.592 240C326.592 240 324.859 239.133 323.392 237.4L295.392 204.8L292.592 207.6C290.859 209.333 289.992 211.4 289.992 213.8V233.4C289.992 235.533 289.259 237.133 287.792 238.2C286.459 239.4 284.859 240 282.992 240ZM349.663 240C347.929 240 346.396 239.4 345.063 238.2C343.729 237 343.063 235.4 343.063 233.4C343.063 232.733 343.196 231.867 343.463 230.8L368.462 163C369.396 160.733 370.796 159 372.663 157.8C374.529 156.6 376.529 156 378.663 156C380.796 156 382.796 156.6 384.663 157.8C386.663 159 388.129 160.733 389.062 163L415.663 230.8C415.929 231.867 416.063 232.733 416.063 233.4C416.063 235.4 415.396 237 414.063 238.2C412.729 239.4 411.196 240 409.463 240C408.263 240 406.996 239.667 405.663 239C404.463 238.467 403.529 237.533 402.863 236.2L396.263 218.6C396.129 217.8 395.596 217.4 394.663 217.4H364.062C363.129 217.4 362.529 217.8 362.263 218.6L356.263 236.2C355.596 237.533 354.596 238.467 353.263 239C352.063 239.667 350.863 240 349.663 240ZM370.063 205.4H388.063C388.863 205.4 389.463 205.133 389.863 204.6C390.396 203.933 390.529 203.133 390.263 202.2L380.663 174.8C380.263 173.467 379.663 172.8 378.863 172.8C377.929 172.8 377.263 173.467 376.863 174.8L367.863 202.4C367.596 203.2 367.663 203.933 368.063 204.6C368.596 205.133 369.263 205.4 370.063 205.4Z" fill="#162A31"/>
<path d="M93.826 271C148.761 348.678 263.284 355.909 329.826 271" stroke="#162A31" stroke-width="14" stroke-linecap="round"/>
<path d="M148.826 44C123.358 54.3583 88.1826 91.9848 78.0651 123.082" stroke="#162A31" stroke-width="14" stroke-linecap="round"/>
<path d="M273.826 44.3217C299.294 54.68 334.469 92.3065 344.587 123.404" stroke="#162A31" stroke-width="14" stroke-linecap="round"/>
<circle cx="211.326" cy="36.5" r="36.5" fill="white"/>
<circle cx="211.326" cy="36.5" r="36.5" fill="#162A31"/>
<circle cx="211.326" cy="36.5" r="21.5" fill="white"/>
</svg>
