<svg width="27" height="27" viewBox="0 0 27 27" fill="none" xmlns="http://www.w3.org/2000/svg">
<path d="M7.41919 24.3C6.86063 24.3 6.38447 24.1012 5.99072 23.7035C5.59697 23.3058 5.4001 22.8277 5.4001 22.2691C5.4001 21.7105 5.59894 21.2344 5.99663 20.8406C6.39432 20.4469 6.87244 20.25 7.431 20.25C7.98957 20.25 8.46572 20.4489 8.85947 20.8465C9.25322 21.2442 9.4501 21.7224 9.4501 22.2809C9.4501 22.8395 9.25125 23.3156 8.85357 23.7094C8.45588 24.1031 7.97775 24.3 7.41919 24.3ZM19.5692 24.3C19.0106 24.3 18.5345 24.1012 18.1407 23.7035C17.747 23.3058 17.5501 22.8277 17.5501 22.2691C17.5501 21.7105 17.7489 21.2344 18.1466 20.8406C18.5443 20.4469 19.0224 20.25 19.581 20.25C20.1396 20.25 20.6157 20.4489 21.0095 20.8465C21.4032 21.2442 21.6001 21.7224 21.6001 22.2809C21.6001 22.8395 21.4013 23.3156 21.0036 23.7094C20.6059 24.1031 20.1278 24.3 19.5692 24.3ZM7.11572 7.42501L9.4501 12.825H17.9157L20.222 7.42501H7.11572ZM6.24385 5.40001H22.2751C22.5376 5.40001 22.7298 5.50314 22.8517 5.70939C22.9735 5.91564 22.9876 6.13126 22.8938 6.35626L19.7616 13.6086C19.5998 13.9862 19.3548 14.2875 19.0267 14.5125C18.6985 14.7375 18.3282 14.85 17.9157 14.85H8.91572L7.73447 16.875H21.6001V18.9H7.7626C6.95635 18.9 6.36104 18.5611 5.97666 17.8833C5.59229 17.2053 5.59697 16.5317 5.99072 15.8625L7.45322 13.3313L3.76885 4.72501H1.3501V2.70001H5.09072L6.24385 5.40001Z" fill="#03301F"/>
</svg>
